<?xml version="1.0" encoding="UTF-8" standalone="no"?>
<!-- Created with Inkscape (http://www.inkscape.org/) -->

<svg
   xmlns:dc="http://purl.org/dc/elements/1.1/"
   xmlns:cc="http://creativecommons.org/ns#"
   xmlns:rdf="http://www.w3.org/1999/02/22-rdf-syntax-ns#"
   xmlns:svg="http://www.w3.org/2000/svg"
   xmlns="http://www.w3.org/2000/svg"
   xmlns:xlink="http://www.w3.org/1999/xlink"
   xmlns:sodipodi="http://sodipodi.sourceforge.net/DTD/sodipodi-0.dtd"
   xmlns:inkscape="http://www.inkscape.org/namespaces/inkscape"
   width="210mm"
   height="297mm"
   viewBox="0 0 744.09448819 1052.3622047"
   id="svg2"
   version="1.1"
   inkscape:version="0.91 r13725"
   sodipodi:docname="arc_composition.svg">
  <defs
     id="defs4">
    <linearGradient
       id="paramgrad"
       gradientTransform="matrix(1.5006756,0,0,0.66636654,-653.14496,188.29496)"
       x1="445.97005"
       y1="358.66146"
       x2="781.54077"
       y2="358.66146"
       gradientUnits="userSpaceOnUse">
      <stop
         id="stop4209"
         stop-opacity="1.0"
         stop-color="#268bd2"
         offset="0%" />
      <stop
         id="stop4211"
         stop-opacity="1.0"
         stop-color="#6c71c4"
         offset="100%" />
    </linearGradient>
    <linearGradient
       id="paramgrad-3"
       gradientTransform="matrix(1.9752588,0,0,0.50626277,-228.88093,-235.96907)"
       x1="378.25971"
       y1="1484.2588"
       x2="555.1936"
       y2="1484.2588"
       gradientUnits="userSpaceOnUse">
      <stop
         id="stop4228"
         stop-opacity="1.0"
         stop-color="#268bd2"
         offset="0%" />
      <stop
         id="stop4230"
         stop-opacity="1.0"
         stop-color="#6c71c4"
         offset="100%" />
    </linearGradient>
    <radialGradient
       inkscape:collect="always"
       xlink:href="#paramgrad"
       id="radialGradient4252"
       cx="497.6264"
       cy="521.05988"
       fx="497.6264"
       fy="521.05988"
       r="16.263456"
       gradientTransform="matrix(0.40664669,0,0,0.41548688,316.62888,299.66942)"
       gradientUnits="userSpaceOnUse" />
  </defs>
  <sodipodi:namedview
     id="base"
     pagecolor="#ffffff"
     bordercolor="#666666"
     borderopacity="1.0"
     inkscape:pageopacity="0.0"
     inkscape:pageshadow="2"
     inkscape:zoom="0.70710678"
     inkscape:cx="167.88532"
     inkscape:cy="680.23702"
     inkscape:document-units="px"
     inkscape:current-layer="layer1"
     showgrid="false"
     inkscape:object-nodes="true"
     inkscape:snap-bbox="true"
     inkscape:bbox-nodes="true"
     inkscape:bbox-paths="true"
     inkscape:snap-bbox-edge-midpoints="true"
     inkscape:snap-bbox-midpoints="true"
     inkscape:object-paths="true"
     inkscape:snap-intersection-paths="true"
     inkscape:snap-smooth-nodes="true"
     inkscape:snap-midpoints="true"
     inkscape:snap-object-midpoints="true"
     inkscape:snap-center="true"
     inkscape:snap-text-baseline="true"
     inkscape:snap-grids="true"
     inkscape:snap-page="true"
     inkscape:window-width="1918"
     inkscape:window-height="1057"
     inkscape:window-x="0"
     inkscape:window-y="21"
     inkscape:window-maximized="0" />
  <metadata
     id="metadata7">
    <rdf:RDF>
      <cc:Work
         rdf:about="">
        <dc:format>image/svg+xml</dc:format>
        <dc:type
           rdf:resource="http://purl.org/dc/dcmitype/StillImage" />
        <dc:title></dc:title>
      </cc:Work>
    </rdf:RDF>
  </metadata>
  <g
     inkscape:label="Layer 1"
     inkscape:groupmode="layer"
     id="layer1">
    <path
       id="path4213"
       d="m 518.98703,516.16295 q -0.8677,-0.8678 -1.7425,-1.7284 -0.8749,-0.8606 -1.7567,-1.7141 -0.8818,-0.8534 -1.7706,-1.6996 -0.8888,-0.8462 -1.7845,-1.6851 -0.8957,-0.8389 -1.7982,-1.6705 -0.9025,-0.8315 -1.8118,-1.6556 -0.9093,-0.8242 -1.8253,-1.6408 -0.916,-0.8167 -1.8387,-1.6258 -0.9226,-0.8092 -1.8518,-1.6108 -0.9293,-0.8015 -1.8651,-1.5955 -0.9357,-0.7939 -1.878,-1.5802 -0.9422,-0.7862 -1.8908,-1.5647 -0.9486,-0.7786 -1.9036,-1.5493 -0.955,-0.7707 -1.9162,-1.5336 -0.9613,-0.7629 -1.9287,-1.5179 -0.9675,-0.755 -1.9411,-1.5021 -0.9736,-0.7471 -1.9532,-1.4861 -0.9797,-0.7391 -1.9654,-1.4702 -0.9857,-0.731 -1.9773,-1.4539 -0.9917,-0.723 -1.9892,-1.4378 -0.9975,-0.7148 -2.0008,-1.4214 -1.0034,-0.7067 -2.0125,-1.4051 -1.009,-0.6984 -2.0238,-1.3885 -1.0148,-0.6901 -2.0351,-1.3719 -1.0204,-0.6818 -2.0463,-1.3552 -1.0259,-0.6734 -2.0573,-1.3384 -1.0314,-0.665 -2.0682,-1.3216 -1.0368,-0.6565 -2.0789,-1.3046 -1.0422,-0.648 -2.0896,-1.2875 -1.0474,-0.6395 -2.1,-1.2704 -1.0526,-0.6309 -2.1103,-1.2532 -1.0577,-0.6222 -2.1205,-1.2358 -1.0628,-0.6136 -2.1305,-1.2185 -1.0678,-0.6049 -2.1405,-1.201 -1.0727,-0.5961 -2.1502,-1.1835 -1.0775,-0.5873 -2.1598,-1.1658 -1.0823,-0.5785 -2.1692,-1.1481 -1.087,-0.5696 -2.1786,-1.1303 -1.0916,-0.5607 -2.1878,-1.1125 -1.0962,-0.5517 -2.1968,-1.0945 -1.1006,-0.5428 -2.2057,-1.0765 -1.105,-0.5338 -2.2144,-1.0585 -1.1093,-0.5247 -2.223,-1.0403 -1.1136,-0.5156 -2.2314,-1.022 -1.1178,-0.5065 -2.2397,-1.0038 -1.1219,-0.4973 -2.2479,-0.9854 -1.1259,-0.4882 -2.2558,-0.967 -1.1299,-0.4789 -2.2637,-0.9486 -1.1337,-0.4696 -2.2713,-0.9299 -1.1376,-0.4604 -2.2789,-0.9114 -1.1413,-0.451 -2.2863,-0.8926 -1.1449,-0.4417 -2.2935,-0.874 -1.1485,-0.4323 -2.3006,-0.8551 -1.152,-0.4229 -2.3074,-0.8363 -1.1555,-0.4134 -2.3143,-0.8174 -1.1588,-0.404 -2.3209,-0.7984 -1.162,-0.3945 -2.3273,-0.7795 -1.1652,-0.3849 -2.3336,-0.7603 -1.1684,-0.3754 -2.3398,-0.7412 -1.1713,-0.3659 -2.3457,-0.7221 -1.1743,-0.3562 -2.3516,-0.7029 -1.1772,-0.3466 -2.3572,-0.6835 -1.18,-0.337 -2.3628,-0.6643 -1.1827,-0.3273 -2.3681,-0.6449 -1.1854,-0.3177 -2.3733,-0.6256 -1.1879,-0.3079 -2.3783,-0.6061 -1.1905,-0.2982 -2.3833,-0.5866 -1.1928,-0.2884 -2.3879,-0.5671 -1.1952,-0.2787 -2.3925,-0.5475 -1.1974,-0.2689 -2.3969,-0.528 -1.1996,-0.2591 -2.4012,-0.5083 -1.2016,-0.2493 -2.4052,-0.4887 -1.2036,-0.2394 -2.4091,-0.469 -1.2056,-0.2295 -2.4129,-0.4492 -1.2074,-0.2197 -2.4165,-0.4295 -1.2092,-0.2098 -2.42,-0.4097 -1.2108,-0.1999 -2.4232,-0.3899 -1.2123,-0.19 -2.4263,-0.3701 -1.2139,-0.18 -2.4292,-0.3501 -1.2153,-0.1702 -2.432,-0.3304 -1.2167,-0.1601 -2.4347,-0.3104 -1.218,-0.1502 -2.4371,-0.2904 -1.2192,-0.1403 -2.4394,-0.2706 -1.2203,-0.1302 -2.4416,-0.2505 -1.2212,-0.1203 -2.4435,-0.2306 -1.2222,-0.1103 -2.4453,-0.2106 -1.2231,-0.1003 -2.4469,-0.1905 -1.2239,-0.09 -2.4485,-0.1706 -1.2245,-0.08 -2.4497,-0.1505 -1.2252,-0.07 -2.4509,-0.1304 -1.2257,-0.06 -2.4519,-0.1104 -1.2261,-0.05 -2.4527,-0.09 -1.2265,-0.04 -2.4533,-0.07 -1.2269,-0.03 -2.4539,-0.05 -1.227,-0.02 -2.4542,-0.03 -1.2271,-0.01 -2.4543,-0.01 -1.2272,0 -2.4543,0.01 -1.2272,0.01 -2.4542,0.03 -1.227,0.02 -2.4539,0.05 -1.2268,0.03 -2.4533,0.07 -1.2266,0.04 -2.4527,0.09 -1.2262,0.05 -2.4519,0.1104 -1.2257,0.06 -2.4509,0.1304 -1.2252,0.07 -2.4497,0.1505 -1.2246,0.08 -2.4485,0.1706 -1.2238,0.09 -2.4469,0.1905 -1.2231,0.1003 -2.4453,0.2106 -1.2223,0.1103 -2.4435,0.2306 -1.2213,0.1203 -2.4416,0.2505 -1.2202,0.1303 -2.4394,0.2706 -1.2191,0.1402 -2.4371,0.2904 -1.218,0.1503 -2.4347,0.3104 -1.2167,0.1602 -2.432,0.3304 -1.2153,0.1701 -2.4292,0.3501 -1.214,0.1801 -2.4263,0.3701 -1.2124,0.19 -2.4232,0.3899 -1.2108,0.1999 -2.42,0.4097 -1.2091,0.2098 -2.4165,0.4295 -1.2073,0.2197 -2.4129,0.4492 -1.2055,0.2296 -2.4091,0.469 -1.2036,0.2394 -2.4052,0.4887 -1.2016,0.2492 -2.4012,0.5083 -1.1995,0.2591 -2.3969,0.528 -1.1973,0.2688 -2.3925,0.5475 -1.1951,0.2787 -2.3879,0.5671 -1.1928,0.2884 -2.3833,0.5866 -1.1904,0.2982 -2.3783,0.6061 -1.1879,0.3079 -2.3733,0.6256 -1.1854,0.3176 -2.3681,0.6449 -1.1828,0.3273 -2.3628,0.6643 -1.18,0.3369 -2.3572,0.6835 -1.1773,0.3467 -2.3516,0.7029 -1.1744,0.3562 -2.3457,0.7221 -1.1714,0.3658 -2.3398,0.7412 -1.1684,0.3754 -2.3336,0.7603 -1.1653,0.385 -2.3273,0.7795 -1.1621,0.3944 -2.3209,0.7984 -1.1588,0.404 -2.3143,0.8174 -1.1554,0.4134 -2.3074,0.8363 -1.1521,0.4228 -2.3006,0.8551 -1.1486,0.4323 -2.2935,0.874 -1.145,0.4416 -2.2863,0.8926 -1.1413,0.451 -2.2789,0.9114 -1.1376,0.4603 -2.2713,0.9299 -1.1338,0.4697 -2.2637,0.9486 -1.1299,0.4788 -2.2558,0.967 -1.126,0.4881 -2.2479,0.9854 -1.1219,0.4973 -2.2397,1.0038 -1.1178,0.5064 -2.2314,1.022 -1.1137,0.5156 -2.223,1.0403 -1.1094,0.5247 -2.2144,1.0585 -1.1051,0.5337 -2.2057,1.0765 -1.1006,0.5428 -2.1968,1.0945 -1.0962,0.5518 -2.1878,1.1125 -1.0916,0.5607 -2.1786,1.1303 -1.0869,0.5696 -2.1692,1.1481 -1.0823,0.5785 -2.1598,1.1658 -1.0775,0.5874 -2.1502,1.1835 -1.0727,0.5961 -2.1405,1.201 -1.0677,0.6049 -2.1305,1.2185 -1.0628,0.6136 -2.1205,1.2358 -1.0577,0.6223 -2.1103,1.2532 -1.0526,0.6309 -2.1,1.2704 -1.0474,0.6395 -2.0896,1.2875 -1.0421,0.6481 -2.0789,1.3046 -1.0368,0.6566 -2.0682,1.3216 -1.0314,0.665 -2.0573,1.3384 -1.0259,0.6734 -2.0463,1.3552 -1.0203,0.6818 -2.0351,1.3719 -1.0148,0.6901 -2.0238,1.3885 -1.0091,0.6984 -2.0125,1.4051 -1.0033,0.7066 -2.0008,1.4214 -0.9975,0.7148 -1.9892,1.4378 -0.9916,0.7229 -1.9773,1.4539 -0.9857,0.7311 -1.9654,1.4702 -0.9796,0.739 -1.9532,1.4861 -0.9736,0.7471 -1.9411,1.5021 -0.9674,0.755 -1.9287,1.5179 -0.9612,0.7629 -1.9162,1.5336 -0.955,0.7707 -1.9036,1.5493 -0.9486,0.7785 -1.8908,1.5647 -0.9423,0.7863 -1.878,1.5802 -0.9358,0.794 -1.8651,1.5955 -0.9292,0.8016 -1.8518,1.6108 -0.9227,0.8091 -1.8387,1.6258 -0.916,0.8166 -1.8253,1.6408 -0.9093,0.8241 -1.8118,1.6556 -0.9025,0.8316 -1.7982,1.6705 -0.8957,0.8389 -1.784499,1.6851 -0.8888,0.8462 -1.7706,1.6996 -0.8818,0.8535 -1.7567,1.7141 -0.8748,0.8606 -1.7425,1.7284 -0.8678,0.8677 -1.7284,1.7425 -0.8606,0.8749 -1.7141,1.7567 -0.8534,0.8818 -1.6996,1.7706 -0.8462,0.8888 -1.6851,1.7845 -0.8389,0.8957 -1.6705,1.7982 -0.8315,0.9025 -1.6556,1.8118 -0.8242,0.9093 -1.6408,1.8253 -0.8167,0.916 -1.6258,1.8387 -0.8092,0.9226 -1.6108,1.8518 -0.8015,0.9293 -1.5955,1.8651 -0.7939,0.9357 -1.5802,1.878 -0.7862,0.9422 -1.5647,1.8908 -0.7786,0.9486 -1.5493,1.9036 -0.7707,0.955 -1.5336,1.9162 -0.7629,0.9613 -1.5179,1.9287 -0.755,0.9675 -1.5021,1.9411 -0.7471,0.9736 -1.4861,1.9532 -0.7391,0.9797 -1.4702,1.9654 -0.731,0.9857 -1.4539,1.9773 -0.723,0.9917 -1.4378,1.9892 -0.7148,0.9975 -1.4214,2.0008 -0.7067,1.0034 -1.4051,2.0125 -0.6984,1.009 -1.3885,2.0238 -0.6901,1.0148 -1.3719,2.0351 -0.6818,1.0204 -1.3552,2.0463 -0.6734,1.0259 -1.3384,2.0573 -0.665,1.0314 -1.3216,2.0682 -0.6565,1.0368 -1.3046,2.0789 -0.648,1.0422 -1.2875,2.0896 -0.6395,1.0474 -1.2704,2.1 -0.6309,1.0526 -1.2532,2.1103 -0.6222,1.0577 -1.2358,2.1205 -0.6136,1.0628 -1.2185,2.1305 -0.6049,1.0678 -1.201,2.1405 -0.5961,1.0727 -1.1835,2.1502 -0.5873,1.0775 -1.1658,2.1598 -0.5785,1.0823 -1.1481,2.1692 -0.5696,1.087 -1.1303,2.1786 -0.5607,1.0916 -1.1125,2.1878 -0.5517,1.0962 -1.0945,2.1968 -0.5428,1.1006 -1.0765,2.2057 -0.5338,1.105 -1.0585,2.2144 -0.5247,1.1093 -1.0403,2.223 -0.5156,1.1136 -1.022,2.2314 -0.5065,1.1178 -1.0038,2.2397 -0.4973,1.1219 -0.9854,2.2479 -0.4882,1.1259 -0.967,2.2558 -0.4789,1.1299 -0.9486,2.2637 -0.4696,1.1337 -0.9299,2.2713 -0.4604,1.1376 -0.9114,2.2789 -0.451,1.1413 -0.8926,2.2863 -0.4417,1.1449 -0.874,2.2935 -0.4323,1.1485 -0.8551,2.3006 -0.4229,1.152 -0.8363,2.3074 -0.4134,1.1555 -0.8174,2.3143 -0.404,1.1588 -0.7984,2.3209 -0.3945,1.162 -0.7795,2.3273 -0.3849,1.1652 -0.7603,2.3336 -0.3754,1.1684 -0.7412,2.3398 -0.3659,1.1713 -0.7221,2.3457 -0.3562,1.1743 -0.7029,2.3516 -0.3466,1.1772 -0.6835,2.3572 -0.337,1.18 -0.6643,2.3628 -0.3273,1.1827 -0.6449,2.3681"
       style="fill:none;stroke:url(#paramgrad);stroke-width:2"
       inkscape:connector-curvature="0" />
    <path
       style="fill:none;stroke:url(#paramgrad-3);stroke-width:2"
       id="path4232"
       d="m 518.98703,516.16295 q 0.5206,0.5207 1.0438,1.0388 0.5232,0.5181 1.049,1.0336 0.5257,0.5155 1.054,1.0284 0.5282,0.513 1.059,1.0233 0.5308,0.5103 1.064,1.018 0.5333,0.5077 1.0691,1.0128 0.5357,0.5051 1.074,1.0076 0.5382,0.5024 1.0789,1.0023 0.5407,0.4998 1.0838,0.9969 0.5431,0.4972 1.0887,0.9916 0.5456,0.4945 1.0936,0.9863 0.548,0.4918 1.0984,0.9809 0.5504,0.4891 1.1032,0.9755 0.5528,0.4864 1.1079,0.97 0.5552,0.4837 1.1127,0.9647 0.5576,0.4809 1.1175,0.9591 0.5599,0.4782 1.1221,0.9536 0.5623,0.4755 1.1268,0.9481 0.5646,0.4727 1.1315,0.9426 0.5668,0.4699 1.136,0.937 0.5692,0.4671 1.1407,0.9315 0.5714,0.4643 1.1452,0.9258 0.5737,0.4615 1.1497,0.9202 0.576,0.4586 1.1542,0.9145 0.5783,0.4558 1.1587,0.9088 0.5805,0.453 1.1632,0.9032 0.5827,0.4501 1.1676,0.8974 0.5848,0.4473 1.1719,0.8917 0.5871,0.4444 1.1763,0.8859 0.5893,0.4415 1.1807,0.8802 0.5914,0.4386 1.185,0.8743 0.5935,0.4357 1.1892,0.8685 0.5957,0.4328 1.1935,0.8627 0.5978,0.4298 1.1977,0.8567 0.5999,0.427 1.2019,0.8509 0.602,0.424 1.2061,0.845 0.6041,0.421 1.2102,0.8391 0.6061,0.418 1.2143,0.8331 0.6082,0.4151 1.2184,0.8271 0.6102,0.4121 1.2224,0.8212 0.6123,0.4091 1.2265,0.8151 0.6142,0.4061 1.2304,0.8091 0.6162,0.4031 1.2344,0.8031 0.6182,0.4 1.2383,0.797 0.6201,0.3969 1.2422,0.7909 0.6221,0.3939 1.2461,0.7848 0.624,0.3908 1.2499,0.7786 0.6259,0.3878 1.2537,0.7725 0.6278,0.3848 1.2575,0.7664 0.6297,0.3816 1.2613,0.7602 0.6315,0.3785 1.2649,0.754 0.6334,0.3754 1.2687,0.7477 0.6352,0.3723 1.2723,0.7415 0.6371,0.3692 1.2759,0.7353 0.6389,0.3661 1.2795,0.729 0.6407,0.3629 1.2831,0.7227 0.6425,0.3598 1.2866,0.7164 0.6442,0.3566 1.2902,0.7101 0.6459,0.3534 1.2936,0.7037 0.6476,0.3503 1.297,0.6974 0.6493,0.3471 1.3004,0.691 0.6511,0.3439 1.3038,0.6846 0.6528,0.3407 1.3072,0.6782 0.6544,0.3375 1.3105,0.6718 0.656,0.3342 1.3137,0.6653 0.6577,0.331 1.317,0.6589 0.6593,0.3278 1.3202,0.6524 0.6609,0.3246 1.3234,0.6459 0.6625,0.3213 1.3266,0.6394 0.6641,0.3181 1.3297,0.6329 0.6656,0.3148 1.3327,0.6263 0.6672,0.3116 1.3359,0.6199 0.6687,0.3082 1.3388,0.6132 0.6702,0.305 1.3419,0.6067 0.6717,0.3016 1.3448,0.6 0.6731,0.2984 1.3478,0.5935 0.6746,0.2951 1.3506,0.5868 0.676,0.2918 1.3535,0.5802 0.6775,0.2885 1.3563,0.5736 0.6789,0.2851 1.3592,0.5669 0.6802,0.2817 1.3619,0.5602 0.6816,0.2784 1.3646,0.5535 0.683,0.2751 1.3673,0.5468 0.6844,0.2717 1.3701,0.5401 0.6856,0.2683 1.3726,0.5333 0.687,0.265 1.3752,0.5267 0.6883,0.2616 1.3778,0.5198 0.6896,0.2583 1.3804,0.5131 0.6908,0.2549 1.3828,0.5063 0.6921,0.2515 1.3853,0.4995 0.6933,0.2481 1.3878,0.4927 0.6945,0.2447 1.3901,0.4859 0.6957,0.2413 1.3926,0.4791 0.6968,0.2378 1.3948,0.4722 0.698,0.2344 1.3972,0.4654 0.6991,0.2309 1.3994,0.4585 0.7003,0.2275 1.4017,0.4516 0.7013,0.2241 1.4038,0.4447 0.7025,0.2207 1.406,0.4379 0.7036,0.2172 1.4082,0.4309 0.7046,0.2137 1.4103,0.424 0.7056,0.2103 1.4123,0.4171 0.7066,0.2068 1.4143,0.4102 0.7077,0.2033 1.4164,0.4032 0.7086,0.1998 1.4183,0.3962 0.7096,0.1964 1.4202,0.3893 0.7106,0.1929 1.4221,0.3823 0.7116,0.1894 1.424,0.3753 0.7125,0.1859 1.4258,0.3684 0.7134,0.1824 1.4276,0.3613 0.7143,0.1789 1.4294,0.3543 0.7151,0.1754 1.4311,0.3473 0.716,0.1719 1.4328,0.3402 0.7168,0.1684 1.4344,0.3333 0.7176,0.1648 1.436,0.3261 0.7184,0.1614 1.4377,0.3192 0.7192,0.1578 1.4391,0.312 0.72,0.1543 1.4407,0.305 0.7207,0.1508 1.4422,0.2979 0.7214,0.1472 1.4436,0.2909 0.7222,0.1436 1.445,0.2837 0.7229,0.1401 1.4464,0.2767 0.7236,0.1365 1.4478,0.2695 0.7242,0.133 1.449,0.2625 0.7249,0.1294 1.4503,0.2553 0.7255,0.1259 1.4516,0.2482 0.7261,0.1223 1.4527,0.2411 0.7267,0.1187 1.454,0.2339 0.7272,0.1152 1.455,0.2268 0.7278,0.1116 1.4562,0.2197 0.7283,0.108 1.4572,0.2125 0.7288,0.1044 1.4582,0.2053 0.7294,0.1009 1.4592,0.1982 0.7299,0.097 1.4602,0.191 0.7303,0.094 1.4611,0.1839 0.7308,0.09 1.462,0.1766 0.7312,0.087 1.4628,0.1695 0.7316,0.083 1.4637,0.1624 0.732,0.079 1.4644,0.1551 0.7324,0.076 1.4652,0.1479 0.7327,0.072 1.4658,0.1408 0.7331,0.068 1.4666,0.1335 0.7334,0.065 1.4672,0.1264 0.7337,0.061 1.4678,0.1191 0.734,0.058 1.4683,0.1119 0.7343,0.054 1.4689,0.1048 0.7346,0.051 1.4694,0.098 0.7348,0.047 1.4699,0.09 0.735,0.043 1.4702,0.083 0.7353,0.04 1.4707,0.076 0.7354,0.036 1.471,0.069 0.7356,0.033 1.4714,0.061 0.7357,0.029 1.4716,0.054 0.7359,0.025 1.4718,0.047 0.736,0.022 1.4721,0.04 0.7361,0.018 1.4723,0.033 0.7362,0.014 1.4724,0.025 0.7362,0.011 1.4725,0.018 0.7363,0.01 1.4726,0.011 0.7363,0 1.4726,0 0.7363,0 1.4726,0 0.7363,0 1.4726,-0.011 0.7363,-0.01 1.4725,-0.018 0.7362,-0.011 1.4724,-0.025 0.7362,-0.014 1.4723,-0.033 0.7361,-0.018 1.4721,-0.04 0.7359,-0.022 1.4718,-0.047 0.7359,-0.025 1.4716,-0.054 0.7358,-0.029 1.4714,-0.061 0.7356,-0.032 1.471,-0.069 0.7354,-0.036 1.4707,-0.076 0.7352,-0.04 1.4702,-0.083 0.7351,-0.043 1.4699,-0.09 0.7348,-0.047 1.4694,-0.097 0.7346,-0.051 1.4689,-0.1048 0.7343,-0.054 1.4683,-0.1119 0.7341,-0.058 1.4678,-0.1191 0.7338,-0.061 1.4672,-0.1264 0.7335,-0.065 1.4666,-0.1335 0.7331,-0.069 1.4658,-0.1408 0.7328,-0.072 1.4652,-0.1479 0.7324,-0.076 1.4644,-0.1551 0.7321,-0.079 1.4637,-0.1624 0.7316,-0.083 1.4628,-0.1695 0.7312,-0.087 1.462,-0.1766 0.7308,-0.09 1.4611,-0.1839 0.7303,-0.094 1.4602,-0.191 0.7298,-0.097 1.4592,-0.1982 0.7294,-0.1009 1.4582,-0.2053 0.7289,-0.1045 1.4572,-0.2125 0.7284,-0.1081 1.4562,-0.2197 0.7278,-0.1116 1.455,-0.2268 0.7273,-0.1152 1.454,-0.2339 0.7266,-0.1188 1.4527,-0.2411 0.7261,-0.1223 1.4516,-0.2482 0.7254,-0.1259 1.4503,-0.2553 0.7248,-0.1295 1.449,-0.2625 0.7242,-0.133 1.4478,-0.2695 0.7235,-0.1366 1.4464,-0.2767 0.7228,-0.1401 1.445,-0.2837 0.7222,-0.1437 1.4436,-0.2909 0.7215,-0.1471 1.4422,-0.2979 0.7207,-0.1507 1.4407,-0.305 0.7199,-0.1542 1.4391,-0.312 0.7193,-0.1578 1.4377,-0.3192 0.7184,-0.1613 1.436,-0.3261 0.7176,-0.1649 1.4344,-0.3333 0.7168,-0.1683 1.4328,-0.3402 0.716,-0.1719 1.4311,-0.3473 0.7151,-0.1754 1.4294,-0.3543 0.7142,-0.1789 1.4276,-0.3613 0.7133,-0.1825 1.4258,-0.3684 0.7124,-0.1859 1.424,-0.3753 0.7115,-0.1894 1.4221,-0.3823 0.7106,-0.1929 1.4202,-0.3893 0.7097,-0.1964 1.4183,-0.3962 0.7087,-0.1999 1.4164,-0.4032 0.7077,-0.2034 1.4143,-0.4102 0.7067,-0.2068 1.4123,-0.4171 0.7057,-0.2103 1.4103,-0.424 0.7046,-0.2137 1.4082,-0.4309 0.7035,-0.2172 1.406,-0.4379 0.7025,-0.2206 1.4038,-0.4447 0.7014,-0.2241 1.4017,-0.4516 0.7003,-0.2276 1.3994,-0.4585 0.6992,-0.231 1.3972,-0.4654 0.698,-0.2344 1.3948,-0.4722 0.6969,-0.2378 1.3926,-0.4791 0.6956,-0.2412 1.3901,-0.4859 0.6945,-0.2446 1.3878,-0.4927 0.6932,-0.248 1.3853,-0.4995 0.692,-0.2514 1.3828,-0.5063 0.6908,-0.2548 1.3804,-0.5131 0.6895,-0.2582 1.3778,-0.5198 0.6882,-0.2617 1.3752,-0.5267 0.687,-0.265 1.3726,-0.5333 0.6857,-0.2684 1.3701,-0.5401 0.6843,-0.2717 1.3673,-0.5468 0.683,-0.2751 1.3646,-0.5535 0.6817,-0.2785 1.3619,-0.5602 0.6803,-0.2818 1.3592,-0.5669 0.6788,-0.2851 1.3563,-0.5736 0.6775,-0.2884 1.3535,-0.5802 0.676,-0.2917 1.3506,-0.5868 0.6747,-0.2951 1.3478,-0.5935 0.6731,-0.2984 1.3448,-0.6 0.6717,-0.3017 1.3419,-0.6067 0.6701,-0.305 1.3388,-0.6132 0.6687,-0.3083 1.3359,-0.6199 0.6671,-0.3115 1.3327,-0.6263 0.6656,-0.3148 1.3297,-0.6329 0.6641,-0.3181 1.3266,-0.6394 0.6625,-0.3213 1.3234,-0.6459 0.6609,-0.3246 1.3202,-0.6524 0.6593,-0.3279 1.317,-0.6589 0.6577,-0.3311 1.3137,-0.6653"
       inkscape:connector-curvature="0" />
    <ellipse
       style="fill:url(#radialGradient4252);fill-opacity:1"
       id="path4244"
       cx="518.987"
       cy="516.16296"
       rx="6.613481"
       ry="6.7572522" />
  </g>
</svg>
